<?xml version="1.0" encoding="UTF-8" standalone="no"?>
<!DOCTYPE svg PUBLIC "-//W3C//DTD SVG 1.1//EN" "http://www.w3.org/Graphics/SVG/1.1/DTD/svg11.dtd">
<svg xmlns="http://www.w3.org/2000/svg" version="1.1" viewBox="0.00 0.00 512.00 512.00">
<g stroke-width="2.00" fill="none" stroke-linecap="butt">
<path stroke="#7c7235" vector-effect="non-scaling-stroke" d="
  M 172.41 71.42
  C 119.24 96.29 79.83 141.98 63.30 198.30
  Q 60.48 207.89 58.83 217.86
  C 49.52 274.26 60.25 331.15 93.97 376.52
  Q 131.98 427.67 193.07 449.56
  Q 195.36 450.38 198.22 451.16"
/>
<path stroke="#687236" vector-effect="non-scaling-stroke" d="
  M 198.22 451.16
  Q 244.30 464.50 292.25 456.43
  Q 296.87 455.65 301.64 454.49"
/>
<path stroke="#436e43" vector-effect="non-scaling-stroke" d="
  M 301.64 454.49
  C 359.27 441.10 406.36 403.23 434.24 350.98
  Q 454.66 312.72 456.29 266.66
  C 457.41 235.22 452.88 203.42 439.84 174.64
  C 415.86 121.71 373.69 82.56 318.80 63.73
  Q 306.37 59.46 293.54 57.23"
/>
<path stroke="#687236" vector-effect="non-scaling-stroke" d="
  M 293.54 57.23
  C 253.10 49.57 209.68 53.64 172.41 71.42"
/>
<path stroke="#97cc62" vector-effect="non-scaling-stroke" d="
  M 293.54 57.23
  L 299.90 59.85
  A 1.63 1.62 12.8 0 1 300.90 61.43
  C 300.81 63.01 300.76 64.65 300.15 66.15
  C 299.56 67.57 299.56 69.05 299.18 70.57
  Q 295.83 83.78 292.82 97.31"
/>
<path stroke="#687236" vector-effect="non-scaling-stroke" d="
  M 292.82 97.31
  Q 247.69 86.79 203.71 101.40"
/>
<path stroke="#d0d054" vector-effect="non-scaling-stroke" d="
  M 203.71 101.40
  Q 203.74 100.04 202.63 100.16
  Q 202.52 100.25 202.60 100.13
  Q 202.63 100.09 202.69 100.10
  Q 203.87 100.39 204.69 99.62
  A 0.97 0.96 -24.5 0 0 205.00 98.81
  Q 204.46 92.54 203.59 86.10
  Q 203.24 83.50 202.59 81.48
  Q 201.88 79.28 201.46 76.91
  Q 201.26 75.79 200.79 74.76
  C 200.12 73.27 200.20 71.58 199.87 70.00
  Q 199.35 67.48 198.73 65.06
  A 2.24 2.24 0.0 0 0 195.79 63.51
  Q 194.45 63.99 193.33 64.91
  Q 192.27 65.79 190.96 66.19
  Q 189.51 66.63 188.08 66.96
  C 186.52 67.33 185.53 68.56 183.86 68.40
  Q 182.32 68.25 180.75 68.84
  Q 177.66 70.01 174.85 71.23
  Q 174.29 71.48 173.77 71.84
  Q 171.98 73.07 172.41 71.42"
/>
<path stroke="#7c7235" vector-effect="non-scaling-stroke" d="
  M 203.71 101.40
  Q 180.95 109.54 162.82 122.58
  C 126.25 148.90 102.16 189.72 97.29 235.12
  Q 94.74 258.87 97.59 280.28
  Q 100.75 303.93 108.90 322.50
  Q 133.05 377.56 187.49 403.97
  Q 194.68 407.46 205.45 411.57"
/>
<path stroke="#d0d054" vector-effect="non-scaling-stroke" d="
  M 205.45 411.57
  Q 206.17 417.19 204.63 423.06
  Q 203.20 428.50 202.80 430.61
  Q 202.14 434.17 201.05 438.17
  C 200.80 439.08 201.08 440.05 200.40 441.02
  Q 200.12 441.41 200.14 441.90
  Q 200.21 444.17 199.75 445.25
  Q 198.59 447.94 198.22 451.16"
/>
<path stroke="#97cc62" vector-effect="non-scaling-stroke" d="
  M 301.64 454.49
  C 301.17 451.72 300.31 449.06 299.64 446.30
  Q 297.20 436.35 294.77 425.94
  C 294.25 423.70 293.36 421.72 292.67 419.57
  A 1.35 1.34 78.7 0 0 291.29 418.64
  Q 287.03 418.95 282.63 419.36
  C 281.06 419.51 279.94 420.52 278.32 420.41
  Q 275.75 420.24 273.12 420.13
  Q 272.24 420.10 273.00 419.66
  Q 273.82 419.20 274.74 419.21
  Q 274.98 419.22 274.78 419.09
  Q 274.63 419.00 274.50 419.06
  Q 274.26 419.04 274.04 418.95"
/>
<path stroke="#436e43" vector-effect="non-scaling-stroke" d="
  M 274.04 418.95
  C 311.46 413.46 345.64 396.52 371.85 369.08
  Q 409.82 329.34 414.58 275.88
  C 416.93 249.42 414.73 222.76 405.87 198.78
  C 387.07 147.88 345.62 110.29 292.82 97.31"
/>
<path stroke="#687236" vector-effect="non-scaling-stroke" d="
  M 274.04 418.95
  C 269.88 419.02 265.04 419.65 261.66 419.79
  Q 232.49 421.01 205.45 411.57"
/>
<path stroke="#7c7235" vector-effect="non-scaling-stroke" d="
  M 253.48 187.82
  L 162.07 187.97
  Q 161.74 187.98 161.74 188.31
  L 161.68 219.81"
/>
<path stroke="#44743c" vector-effect="non-scaling-stroke" d="
  M 161.68 219.81
  L 161.71 321.32
  A 0.71 0.71 0.0 0 0 162.42 322.03
  L 253.31 321.98"
/>
<path stroke="#838484" vector-effect="non-scaling-stroke" d="
  M 253.31 321.98
  L 253.45 382.01
  Q 253.45 382.27 253.71 382.26
  L 257.38 382.15
  A 0.21 0.21 0.0 0 0 257.58 381.94
  L 257.51 321.99"
/>
<path stroke="#44743c" vector-effect="non-scaling-stroke" d="
  M 257.51 321.99
  L 349.19 322.01
  A 0.57 0.57 0.0 0 0 349.76 321.44
  L 349.73 188.70
  A 1.17 1.17 0.0 0 0 348.56 187.53
  L 262.17 187.74"
/>
<path stroke="#7c7235" vector-effect="non-scaling-stroke" d="
  M 262.17 187.74
  L 257.51 187.90"
/>
<path stroke="#838484" vector-effect="non-scaling-stroke" d="
  M 257.51 187.90
  L 257.42 130.15
  A 0.70 0.69 88.8 0 0 256.71 129.46
  L 254.04 129.49
  Q 253.44 129.50 253.44 130.10
  L 253.48 187.82"
/>
<path stroke="#ebe2a3" vector-effect="non-scaling-stroke" d="
  M 257.51 187.90
  Q 255.20 189.53 253.48 187.82"
/>
<path stroke="#7c7235" vector-effect="non-scaling-stroke" d="
  M 276.10 220.57
  L 257.26 241.82
  A 1.27 1.27 0.0 0 1 255.40 241.86
  Q 248.89 235.15 240.28 224.81
  C 238.91 223.17 236.29 220.00 234.00 219.92
  Q 218.07 219.38 198.59 220.05"
/>
<path stroke="#b2e4aa" vector-effect="non-scaling-stroke" d="
  M 257.51 321.99
  Q 255.58 320.89 253.31 321.98"
/>
<path stroke="#acd25a" vector-effect="non-scaling-stroke" d="
  M 161.68 219.81
  L 198.59 220.05"
/>
<path stroke="#44743c" vector-effect="non-scaling-stroke" d="
  M 198.59 220.05
  L 198.76 289.56
  A 0.66 0.65 -89.6 0 0 199.40 290.22
  Q 216.56 290.42 233.42 290.16
  Q 235.68 290.12 237.25 288.45
  Q 246.11 279.00 255.50 268.25
  A 0.98 0.97 45.6 0 1 256.97 268.27
  L 274.43 289.14
  A 3.11 3.08 69.7 0 0 276.79 290.24
  L 312.56 290.27
  A 0.69 0.69 0.0 0 0 313.25 289.58
  L 313.16 220.74
  A 0.86 0.86 0.0 0 0 312.33 219.88
  Q 293.87 219.22 276.10 220.57"
/>
<path stroke="#acd25a" vector-effect="non-scaling-stroke" d="
  M 276.10 220.57
  Q 273.28 216.35 271.37 210.88
  Q 267.29 199.20 262.17 187.74"
/>
</g>
<path fill="#bcd055" d="
  M 293.54 57.23
  L 299.90 59.85
  A 1.63 1.62 12.8 0 1 300.90 61.43
  C 300.81 63.01 300.76 64.65 300.15 66.15
  C 299.56 67.57 299.56 69.05 299.18 70.57
  Q 295.83 83.78 292.82 97.31
  Q 247.69 86.79 203.71 101.40
  Q 203.74 100.04 202.63 100.16
  Q 202.52 100.25 202.60 100.13
  Q 202.63 100.09 202.69 100.10
  Q 203.87 100.39 204.69 99.62
  A 0.97 0.96 -24.5 0 0 205.00 98.81
  Q 204.46 92.54 203.59 86.10
  Q 203.24 83.50 202.59 81.48
  Q 201.88 79.28 201.46 76.91
  Q 201.26 75.79 200.79 74.76
  C 200.12 73.27 200.20 71.58 199.87 70.00
  Q 199.35 67.48 198.73 65.06
  A 2.24 2.24 0.0 0 0 195.79 63.51
  Q 194.45 63.99 193.33 64.91
  Q 192.27 65.79 190.96 66.19
  Q 189.51 66.63 188.08 66.96
  C 186.52 67.33 185.53 68.56 183.86 68.40
  Q 182.32 68.25 180.75 68.84
  Q 177.66 70.01 174.85 71.23
  Q 174.29 71.48 173.77 71.84
  Q 171.98 73.07 172.41 71.42
  C 209.68 53.64 253.10 49.57 293.54 57.23
  Z"
/>
<path fill="#72c86f" d="
  M 293.54 57.23
  Q 306.37 59.46 318.80 63.73
  C 373.69 82.56 415.86 121.71 439.84 174.64
  C 452.88 203.42 457.41 235.22 456.29 266.66
  Q 454.66 312.72 434.24 350.98
  C 406.36 403.23 359.27 441.10 301.64 454.49
  C 301.17 451.72 300.31 449.06 299.64 446.30
  Q 297.20 436.35 294.77 425.94
  C 294.25 423.70 293.36 421.72 292.67 419.57
  A 1.35 1.34 78.7 0 0 291.29 418.64
  Q 287.03 418.95 282.63 419.36
  C 281.06 419.51 279.94 420.52 278.32 420.41
  Q 275.75 420.24 273.12 420.13
  Q 272.24 420.10 273.00 419.66
  Q 273.82 419.20 274.74 419.21
  Q 274.98 419.22 274.78 419.09
  Q 274.63 419.00 274.50 419.06
  Q 274.26 419.04 274.04 418.95
  C 311.46 413.46 345.64 396.52 371.85 369.08
  Q 409.82 329.34 414.58 275.88
  C 416.93 249.42 414.73 222.76 405.87 198.78
  C 387.07 147.88 345.62 110.29 292.82 97.31
  Q 295.83 83.78 299.18 70.57
  C 299.56 69.05 299.56 67.57 300.15 66.15
  C 300.76 64.65 300.81 63.01 300.90 61.43
  A 1.63 1.62 12.8 0 0 299.90 59.85
  L 293.54 57.23
  Z"
/>
<path fill="#e4cf53" d="
  M 203.71 101.40
  Q 180.95 109.54 162.82 122.58
  C 126.25 148.90 102.16 189.72 97.29 235.12
  Q 94.74 258.87 97.59 280.28
  Q 100.75 303.93 108.90 322.50
  Q 133.05 377.56 187.49 403.97
  Q 194.68 407.46 205.45 411.57
  Q 206.17 417.19 204.63 423.06
  Q 203.20 428.50 202.80 430.61
  Q 202.14 434.17 201.05 438.17
  C 200.80 439.08 201.08 440.05 200.40 441.02
  Q 200.12 441.41 200.14 441.90
  Q 200.21 444.17 199.75 445.25
  Q 198.59 447.94 198.22 451.16
  Q 195.36 450.38 193.07 449.56
  Q 131.98 427.67 93.97 376.52
  C 60.25 331.15 49.52 274.26 58.83 217.86
  Q 60.48 207.89 63.30 198.30
  C 79.83 141.98 119.24 96.29 172.41 71.42
  Q 171.98 73.07 173.77 71.84
  Q 174.29 71.48 174.85 71.23
  Q 177.66 70.01 180.75 68.84
  Q 182.32 68.25 183.86 68.40
  C 185.53 68.56 186.52 67.33 188.08 66.96
  Q 189.51 66.63 190.96 66.19
  Q 192.27 65.79 193.33 64.91
  Q 194.45 63.99 195.79 63.51
  A 2.24 2.24 0.0 0 1 198.73 65.06
  Q 199.35 67.48 199.87 70.00
  C 200.20 71.58 200.12 73.27 200.79 74.76
  Q 201.26 75.79 201.46 76.91
  Q 201.88 79.28 202.59 81.48
  Q 203.24 83.50 203.59 86.10
  Q 204.46 92.54 205.00 98.81
  A 0.97 0.96 -24.5 0 1 204.69 99.62
  Q 203.87 100.39 202.69 100.10
  Q 202.63 100.09 202.60 100.13
  Q 202.52 100.25 202.63 100.16
  Q 203.74 100.04 203.71 101.40
  Z"
/>
<path fill="#141416" d="
  M 292.82 97.31
  C 345.62 110.29 387.07 147.88 405.87 198.78
  C 414.73 222.76 416.93 249.42 414.58 275.88
  Q 409.82 329.34 371.85 369.08
  C 345.64 396.52 311.46 413.46 274.04 418.95
  C 269.88 419.02 265.04 419.65 261.66 419.79
  Q 232.49 421.01 205.45 411.57
  Q 194.68 407.46 187.49 403.97
  Q 133.05 377.56 108.90 322.50
  Q 100.75 303.93 97.59 280.28
  Q 94.74 258.87 97.29 235.12
  C 102.16 189.72 126.25 148.90 162.82 122.58
  Q 180.95 109.54 203.71 101.40
  Q 247.69 86.79 292.82 97.31
  Z
  M 253.48 187.82
  L 162.07 187.97
  Q 161.74 187.98 161.74 188.31
  L 161.68 219.81
  L 161.71 321.32
  A 0.71 0.71 0.0 0 0 162.42 322.03
  L 253.31 321.98
  L 253.45 382.01
  Q 253.45 382.27 253.71 382.26
  L 257.38 382.15
  A 0.21 0.21 0.0 0 0 257.58 381.94
  L 257.51 321.99
  L 349.19 322.01
  A 0.57 0.57 0.0 0 0 349.76 321.44
  L 349.73 188.70
  A 1.17 1.17 0.0 0 0 348.56 187.53
  L 262.17 187.74
  L 257.51 187.90
  L 257.42 130.15
  A 0.70 0.69 88.8 0 0 256.71 129.46
  L 254.04 129.49
  Q 253.44 129.50 253.44 130.10
  L 253.48 187.82
  Z"
/>
<path fill="#f1f4f2" d="
  M 257.51 187.90
  Q 255.20 189.53 253.48 187.82
  L 253.44 130.10
  Q 253.44 129.50 254.04 129.49
  L 256.71 129.46
  A 0.70 0.69 88.8 0 1 257.42 130.15
  L 257.51 187.90
  Z"
/>
<path fill="#73d461" d="
  M 257.51 321.99
  Q 255.58 320.89 253.31 321.98
  L 162.42 322.03
  A 0.71 0.71 0.0 0 1 161.71 321.32
  L 161.68 219.81
  L 198.59 220.05
  L 198.76 289.56
  A 0.66 0.65 -89.6 0 0 199.40 290.22
  Q 216.56 290.42 233.42 290.16
  Q 235.68 290.12 237.25 288.45
  Q 246.11 279.00 255.50 268.25
  A 0.98 0.97 45.6 0 1 256.97 268.27
  L 274.43 289.14
  A 3.11 3.08 69.7 0 0 276.79 290.24
  L 312.56 290.27
  A 0.69 0.69 0.0 0 0 313.25 289.58
  L 313.16 220.74
  A 0.86 0.86 0.0 0 0 312.33 219.88
  Q 293.87 219.22 276.10 220.57
  Q 273.28 216.35 271.37 210.88
  Q 267.29 199.20 262.17 187.74
  L 348.56 187.53
  A 1.17 1.17 0.0 0 1 349.73 188.70
  L 349.76 321.44
  A 0.57 0.57 0.0 0 1 349.19 322.01
  L 257.51 321.99
  Z"
/>
<path fill="#e4cf53" d="
  M 253.48 187.82
  Q 255.20 189.53 257.51 187.90
  L 262.17 187.74
  Q 267.29 199.20 271.37 210.88
  Q 273.28 216.35 276.10 220.57
  L 257.26 241.82
  A 1.27 1.27 0.0 0 1 255.40 241.86
  Q 248.89 235.15 240.28 224.81
  C 238.91 223.17 236.29 220.00 234.00 219.92
  Q 218.07 219.38 198.59 220.05
  L 161.68 219.81
  L 161.74 188.31
  Q 161.74 187.98 162.07 187.97
  L 253.48 187.82
  Z"
/>
<path fill="#141416" d="
  M 276.10 220.57
  Q 293.87 219.22 312.33 219.88
  A 0.86 0.86 0.0 0 1 313.16 220.74
  L 313.25 289.58
  A 0.69 0.69 0.0 0 1 312.56 290.27
  L 276.79 290.24
  A 3.11 3.08 69.7 0 1 274.43 289.14
  L 256.97 268.27
  A 0.98 0.97 45.6 0 0 255.50 268.25
  Q 246.11 279.00 237.25 288.45
  Q 235.68 290.12 233.42 290.16
  Q 216.56 290.42 199.40 290.22
  A 0.66 0.65 -89.6 0 1 198.76 289.56
  L 198.59 220.05
  Q 218.07 219.38 234.00 219.92
  C 236.29 220.00 238.91 223.17 240.28 224.81
  Q 248.89 235.15 255.40 241.86
  A 1.27 1.27 0.0 0 0 257.26 241.82
  L 276.10 220.57
  Z"
/>
<path fill="#f1f4f2" d="
  M 257.51 321.99
  L 257.58 381.94
  A 0.21 0.21 0.0 0 1 257.38 382.15
  L 253.71 382.26
  Q 253.45 382.27 253.45 382.01
  L 253.31 321.98
  Q 255.58 320.89 257.51 321.99
  Z"
/>
<path fill="#bcd055" d="
  M 205.45 411.57
  Q 232.49 421.01 261.66 419.79
  C 265.04 419.65 269.88 419.02 274.04 418.95
  Q 274.26 419.04 274.50 419.06
  Q 274.63 419.00 274.78 419.09
  Q 274.98 419.22 274.74 419.21
  Q 273.82 419.20 273.00 419.66
  Q 272.24 420.10 273.12 420.13
  Q 275.75 420.24 278.32 420.41
  C 279.94 420.52 281.06 419.51 282.63 419.36
  Q 287.03 418.95 291.29 418.64
  A 1.35 1.34 78.7 0 1 292.67 419.57
  C 293.36 421.72 294.25 423.70 294.77 425.94
  Q 297.20 436.35 299.64 446.30
  C 300.31 449.06 301.17 451.72 301.64 454.49
  Q 296.87 455.65 292.25 456.43
  Q 244.30 464.50 198.22 451.16
  Q 198.59 447.94 199.75 445.25
  Q 200.21 444.17 200.14 441.90
  Q 200.12 441.41 200.40 441.02
  C 201.08 440.05 200.80 439.08 201.05 438.17
  Q 202.14 434.17 202.80 430.61
  Q 203.20 428.50 204.63 423.06
  Q 206.17 417.19 205.45 411.57
  Z"
/>
</svg>
