<?xml version="1.0" encoding="UTF-8" standalone="no"?>
<!DOCTYPE svg PUBLIC "-//W3C//DTD SVG 1.1//EN" "http://www.w3.org/Graphics/SVG/1.1/DTD/svg11.dtd">
<svg xmlns="http://www.w3.org/2000/svg" version="1.1" viewBox="0.00 0.00 1024.00 512.00">
<g stroke-width="2.00" fill="none" stroke-linecap="butt">
<path stroke="#7c7135" vector-effect="non-scaling-stroke" d="
  M 298.41 52.25
  Q 271.90 61.51 248.55 76.89
  Q 241.33 81.65 232.79 89.14
  Q 221.83 98.75 214.27 106.34
  Q 198.06 122.65 183.96 147.98
  Q 173.52 166.73 167.83 187.38
  Q 163.58 202.81 160.94 222.73
  C 159.72 231.94 160.00 240.84 159.98 250.05
  C 159.96 260.23 161.17 271.00 163.24 281.02
  C 166.70 297.76 170.33 314.45 177.83 330.43
  Q 181.61 338.50 183.17 341.28
  Q 190.67 354.65 197.96 364.67
  Q 204.06 373.05 214.06 384.15
  Q 220.63 391.45 227.73 397.60
  Q 250.48 417.33 278.68 430.82
  Q 289.95 436.20 301.53 439.49"
/>
<path stroke="#667137" vector-effect="non-scaling-stroke" d="
  M 301.53 439.49
  Q 317.34 444.56 336.00 446.51
  Q 353.76 448.36 369.03 447.89
  C 375.24 447.70 381.60 446.94 387.92 446.28
  Q 392.35 445.83 397.08 444.81
  Q 401.65 443.84 406.26 442.90"
/>
<path stroke="#436e43" vector-effect="non-scaling-stroke" d="
  M 406.26 442.90
  Q 426.07 438.20 438.00 432.52
  C 444.71 429.33 452.00 426.29 458.12 422.70
  Q 502.01 396.91 529.55 354.00
  Q 530.95 351.81 528.45 352.54
  Q 524.90 353.57 520.99 353.98
  Q 508.38 355.30 496.23 355.00
  C 493.46 354.93 490.64 354.24 487.74 354.14
  Q 486.63 354.10 483.92 353.52
  Q 481.09 352.92 479.55 354.55
  Q 443.02 393.49 392.75 405.51"
/>
<path stroke="#667137" vector-effect="non-scaling-stroke" d="
  M 392.75 405.51
  Q 358.90 412.72 327.59 406.14
  Q 308.88 402.20 287.69 391.32"
/>
<path stroke="#7c7135" vector-effect="non-scaling-stroke" d="
  M 287.69 391.32
  Q 252.60 373.23 230.69 343.32
  Q 204.62 307.75 200.39 260.56
  C 199.67 252.53 199.86 243.71 200.14 235.33
  Q 200.64 220.36 204.95 201.99
  C 208.23 188.02 214.28 175.10 220.73 162.13
  Q 222.39 158.78 224.79 155.45
  Q 227.16 152.17 229.48 148.98
  Q 259.79 107.20 308.55 89.92"
/>
<path stroke="#667137" vector-effect="non-scaling-stroke" d="
  M 308.55 89.92
  Q 352.55 75.96 397.10 86.06"
/>
<path stroke="#436e43" vector-effect="non-scaling-stroke" d="
  M 397.10 86.06
  Q 440.82 97.37 472.43 128.33
  Q 474.43 130.29 480.63 137.53
  Q 481.00 137.97 481.58 137.89
  C 483.21 137.66 484.59 137.05 486.31 136.92
  Q 494.25 136.31 500.70 136.07
  Q 514.42 135.54 528.85 138.70
  A 0.27 0.27 0.0 0 0 529.14 138.30
  Q 523.96 129.37 517.17 120.81
  Q 506.97 107.98 496.39 97.53
  Q 483.67 84.98 467.37 74.56
  Q 451.63 64.49 430.01 55.72
  Q 420.65 51.92 406.12 48.40"
/>
<path stroke="#667137" vector-effect="non-scaling-stroke" d="
  M 406.12 48.40
  Q 393.84 45.40 381.00 44.17
  C 366.00 42.72 350.78 42.40 335.81 44.39
  Q 316.88 46.90 298.41 52.25"
/>
<path stroke="#96cd62" vector-effect="non-scaling-stroke" d="
  M 406.12 48.40
  L 397.10 86.06"
/>
<path stroke="#cfd055" vector-effect="non-scaling-stroke" d="
  M 308.55 89.92
  Q 309.30 86.99 308.21 84.01
  Q 308.04 83.55 308.21 83.10
  Q 309.01 80.91 307.38 79.76
  A 1.13 1.07 8.3 0 1 306.97 79.24
  Q 305.78 76.08 306.08 72.74
  C 306.23 71.00 305.75 69.52 305.50 67.85
  Q 305.24 66.04 304.78 64.19
  Q 303.95 60.79 303.68 57.29
  C 303.59 56.13 303.06 55.52 303.03 54.36
  Q 303.01 53.75 302.55 53.36
  Q 301.06 52.06 298.41 52.25"
/>
<path stroke="#cfd055" vector-effect="non-scaling-stroke" d="
  M 287.69 391.32
  Q 287.99 392.60 289.31 393.23
  Q 289.74 393.43 290.21 393.36
  Q 290.63 393.29 290.79 393.72
  A 0.68 0.64 4.2 0 0 291.13 394.09
  L 298.52 397.62
  A 1.59 1.54 1.9 0 1 299.30 398.43
  Q 299.79 399.59 301.07 399.67
  C 301.93 399.72 302.43 399.99 303.11 400.46
  Q 303.56 400.76 304.10 400.82
  L 307.77 401.19
  A 2.31 2.31 0.0 0 1 309.85 403.49
  Q 309.86 406.78 308.95 409.83
  Q 308.29 412.06 308.08 413.22
  C 307.56 416.11 307.11 418.61 306.29 421.78
  Q 304.93 427.04 304.40 432.46
  Q 304.21 434.46 301.53 439.49"
/>
<path stroke="#96cd62" vector-effect="non-scaling-stroke" d="
  M 406.26 442.90
  Q 404.84 440.35 404.21 437.74
  Q 400.89 424.16 397.62 410.02
  Q 397.15 407.97 396.01 406.31
  A 1.09 1.06 -13.3 0 0 395.26 405.86
  L 392.75 405.51"
/>
<path stroke="#436e43" vector-effect="non-scaling-stroke" d="
  M 513.64 224.37
  A 41.76 41.76 0.0 0 0 471.88 182.61
  L 465.86 182.61
  A 41.76 41.76 0.0 0 0 424.10 224.37
  L 424.10 265.93
  A 41.76 41.76 0.0 0 0 465.86 307.69
  L 471.88 307.69
  A 41.76 41.76 0.0 0 0 513.64 265.93
  L 513.64 224.37"
/>
<path stroke="#436e43" vector-effect="non-scaling-stroke" d="
  M 624.95 225.29
  C 624.79 201.91 608.67 185.95 585.47 184.28
  C 569.19 183.11 552.63 183.65 536.38 183.63
  Q 536.00 183.63 536.00 184.01
  L 536.00 306.25
  Q 536.00 306.59 536.34 306.59
  Q 557.36 306.65 577.99 306.59
  C 596.45 306.54 615.04 299.26 621.92 280.99
  Q 624.86 273.18 624.92 266.58
  Q 625.10 246.96 624.95 225.29"
/>
<path stroke="#436e43" vector-effect="non-scaling-stroke" d="
  M 671.16 234.21
  A 0.38 0.38 0.0 0 1 670.78 233.83
  L 670.80 206.73
  A 0.38 0.38 0.0 0 1 671.18 206.35
  L 729.41 206.35
  A 0.38 0.38 0.0 0 0 729.79 205.97
  L 729.80 184.01
  A 0.38 0.38 0.0 0 0 729.42 183.63
  L 647.73 183.62
  A 0.38 0.38 0.0 0 0 647.35 184.00
  L 647.35 306.24
  A 0.38 0.38 0.0 0 0 647.73 306.62
  L 729.41 306.62
  A 0.38 0.38 0.0 0 0 729.79 306.24
  L 729.79 284.38
  A 0.38 0.38 0.0 0 0 729.41 284.00
  L 671.17 284.00
  A 0.38 0.38 0.0 0 1 670.79 283.62
  L 670.79 257.17
  A 0.38 0.38 0.0 0 1 671.17 256.79
  L 720.26 256.79
  A 0.38 0.38 0.0 0 0 720.64 256.41
  L 720.62 234.58
  A 0.38 0.38 0.0 0 0 720.24 234.20
  L 671.16 234.21"
/>
<path stroke="#436e43" vector-effect="non-scaling-stroke" d="
  M 814.58 256.05
  Q 833.64 249.85 837.42 229.95
  C 841.08 210.69 834.29 190.79 814.28 184.90
  Q 809.31 183.44 796.74 183.56
  Q 775.50 183.76 750.84 183.59
  Q 750.36 183.59 750.36 184.07
  L 750.37 306.24
  A 0.38 0.37 -90.0 0 0 750.74 306.62
  L 773.68 306.63
  Q 774.00 306.63 774.00 306.31
  L 774.00 258.05
  Q 774.00 257.36 774.70 257.36
  L 786.92 257.37
  Q 787.59 257.37 787.91 257.95
  L 814.84 306.03
  Q 815.16 306.61 815.83 306.61
  L 843.14 306.64
  A 0.34 0.34 0.0 0 0 843.43 306.13
  L 814.50 256.26
  A 0.15 0.14 -25.0 0 1 814.58 256.05"
/>
<path stroke="#436e43" vector-effect="non-scaling-stroke" d="
  M 489.4185 225.5917
  A 19.45 19.45 0.0 0 0 470.0365 206.0739
  L 467.9366 206.0666
  A 19.45 19.45 0.0 0 0 448.4188 225.4486
  L 448.2815 264.7883
  A 19.45 19.45 0.0 0 0 467.6635 284.3061
  L 469.7634 284.3134
  A 19.45 19.45 0.0 0 0 489.2812 264.9314
  L 489.4185 225.5917"
/>
<path stroke="#436e43" vector-effect="non-scaling-stroke" d="
  M 559.67 206.72
  L 559.53 283.62
  A 0.39 0.39 0.0 0 0 559.92 284.01
  L 579.40 284.05
  A 21.63 20.51 0.1 0 0 601.07 263.58
  L 601.13 226.92
  A 21.63 20.51 0.1 0 0 579.54 206.37
  L 560.06 206.33
  A 0.39 0.39 0.0 0 0 559.67 206.72"
/>
<path stroke="#436e43" vector-effect="non-scaling-stroke" d="
  M 774.00 206.69
  L 774.00 234.29
  A 0.37 0.37 0.0 0 0 774.37 234.66
  L 802.63 234.66
  A 13.06 11.55 90.0 0 0 814.18 221.60
  L 814.18 219.38
  A 13.06 11.55 -90.0 0 0 802.63 206.32
  L 774.37 206.32
  A 0.37 0.37 0.0 0 0 774.00 206.69"
/>
</g>
<path fill="#131217" d="
  M 0.00 0.00
  L 1024.00 0.00
  L 1024.00 512.00
  L 0.00 512.00
  L 0.00 0.00
  Z
  M 298.41 52.25
  Q 271.90 61.51 248.55 76.89
  Q 241.33 81.65 232.79 89.14
  Q 221.83 98.75 214.27 106.34
  Q 198.06 122.65 183.96 147.98
  Q 173.52 166.73 167.83 187.38
  Q 163.58 202.81 160.94 222.73
  C 159.72 231.94 160.00 240.84 159.98 250.05
  C 159.96 260.23 161.17 271.00 163.24 281.02
  C 166.70 297.76 170.33 314.45 177.83 330.43
  Q 181.61 338.50 183.17 341.28
  Q 190.67 354.65 197.96 364.67
  Q 204.06 373.05 214.06 384.15
  Q 220.63 391.45 227.73 397.60
  Q 250.48 417.33 278.68 430.82
  Q 289.95 436.20 301.53 439.49
  Q 317.34 444.56 336.00 446.51
  Q 353.76 448.36 369.03 447.89
  C 375.24 447.70 381.60 446.94 387.92 446.28
  Q 392.35 445.83 397.08 444.81
  Q 401.65 443.84 406.26 442.90
  Q 426.07 438.20 438.00 432.52
  C 444.71 429.33 452.00 426.29 458.12 422.70
  Q 502.01 396.91 529.55 354.00
  Q 530.95 351.81 528.45 352.54
  Q 524.90 353.57 520.99 353.98
  Q 508.38 355.30 496.23 355.00
  C 493.46 354.93 490.64 354.24 487.74 354.14
  Q 486.63 354.10 483.92 353.52
  Q 481.09 352.92 479.55 354.55
  Q 443.02 393.49 392.75 405.51
  Q 358.90 412.72 327.59 406.14
  Q 308.88 402.20 287.69 391.32
  Q 252.60 373.23 230.69 343.32
  Q 204.62 307.75 200.39 260.56
  C 199.67 252.53 199.86 243.71 200.14 235.33
  Q 200.64 220.36 204.95 201.99
  C 208.23 188.02 214.28 175.10 220.73 162.13
  Q 222.39 158.78 224.79 155.45
  Q 227.16 152.17 229.48 148.98
  Q 259.79 107.20 308.55 89.92
  Q 352.55 75.96 397.10 86.06
  Q 440.82 97.37 472.43 128.33
  Q 474.43 130.29 480.63 137.53
  Q 481.00 137.97 481.58 137.89
  C 483.21 137.66 484.59 137.05 486.31 136.92
  Q 494.25 136.31 500.70 136.07
  Q 514.42 135.54 528.85 138.70
  A 0.27 0.27 0.0 0 0 529.14 138.30
  Q 523.96 129.37 517.17 120.81
  Q 506.97 107.98 496.39 97.53
  Q 483.67 84.98 467.37 74.56
  Q 451.63 64.49 430.01 55.72
  Q 420.65 51.92 406.12 48.40
  Q 393.84 45.40 381.00 44.17
  C 366.00 42.72 350.78 42.40 335.81 44.39
  Q 316.88 46.90 298.41 52.25
  Z
  M 513.64 224.37
  A 41.76 41.76 0.0 0 0 471.88 182.61
  L 465.86 182.61
  A 41.76 41.76 0.0 0 0 424.10 224.37
  L 424.10 265.93
  A 41.76 41.76 0.0 0 0 465.86 307.69
  L 471.88 307.69
  A 41.76 41.76 0.0 0 0 513.64 265.93
  L 513.64 224.37
  Z
  M 624.95 225.29
  C 624.79 201.91 608.67 185.95 585.47 184.28
  C 569.19 183.11 552.63 183.65 536.38 183.63
  Q 536.00 183.63 536.00 184.01
  L 536.00 306.25
  Q 536.00 306.59 536.34 306.59
  Q 557.36 306.65 577.99 306.59
  C 596.45 306.54 615.04 299.26 621.92 280.99
  Q 624.86 273.18 624.92 266.58
  Q 625.10 246.96 624.95 225.29
  Z
  M 671.16 234.21
  A 0.38 0.38 0.0 0 1 670.78 233.83
  L 670.80 206.73
  A 0.38 0.38 0.0 0 1 671.18 206.35
  L 729.41 206.35
  A 0.38 0.38 0.0 0 0 729.79 205.97
  L 729.80 184.01
  A 0.38 0.38 0.0 0 0 729.42 183.63
  L 647.73 183.62
  A 0.38 0.38 0.0 0 0 647.35 184.00
  L 647.35 306.24
  A 0.38 0.38 0.0 0 0 647.73 306.62
  L 729.41 306.62
  A 0.38 0.38 0.0 0 0 729.79 306.24
  L 729.79 284.38
  A 0.38 0.38 0.0 0 0 729.41 284.00
  L 671.17 284.00
  A 0.38 0.38 0.0 0 1 670.79 283.62
  L 670.79 257.17
  A 0.38 0.38 0.0 0 1 671.17 256.79
  L 720.26 256.79
  A 0.38 0.38 0.0 0 0 720.64 256.41
  L 720.62 234.58
  A 0.38 0.38 0.0 0 0 720.24 234.20
  L 671.16 234.21
  Z
  M 814.58 256.05
  Q 833.64 249.85 837.42 229.95
  C 841.08 210.69 834.29 190.79 814.28 184.90
  Q 809.31 183.44 796.74 183.56
  Q 775.50 183.76 750.84 183.59
  Q 750.36 183.59 750.36 184.07
  L 750.37 306.24
  A 0.38 0.37 -90.0 0 0 750.74 306.62
  L 773.68 306.63
  Q 774.00 306.63 774.00 306.31
  L 774.00 258.05
  Q 774.00 257.36 774.70 257.36
  L 786.92 257.37
  Q 787.59 257.37 787.91 257.95
  L 814.84 306.03
  Q 815.16 306.61 815.83 306.61
  L 843.14 306.64
  A 0.34 0.34 0.0 0 0 843.43 306.13
  L 814.50 256.26
  A 0.15 0.14 -25.0 0 1 814.58 256.05
  Z"
/>
<path fill="#b9d056" d="
  M 406.12 48.40
  L 397.10 86.06
  Q 352.55 75.96 308.55 89.92
  Q 309.30 86.99 308.21 84.01
  Q 308.04 83.55 308.21 83.10
  Q 309.01 80.91 307.38 79.76
  A 1.13 1.07 8.3 0 1 306.97 79.24
  Q 305.78 76.08 306.08 72.74
  C 306.23 71.00 305.75 69.52 305.50 67.85
  Q 305.24 66.04 304.78 64.19
  Q 303.95 60.79 303.68 57.29
  C 303.59 56.13 303.06 55.52 303.03 54.36
  Q 303.01 53.75 302.55 53.36
  Q 301.06 52.06 298.41 52.25
  Q 316.88 46.90 335.81 44.39
  C 350.78 42.40 366.00 42.72 381.00 44.17
  Q 393.84 45.40 406.12 48.40
  Z"
/>
<path fill="#73c96e" d="
  M 406.12 48.40
  Q 420.65 51.92 430.01 55.72
  Q 451.63 64.49 467.37 74.56
  Q 483.67 84.98 496.39 97.53
  Q 506.97 107.98 517.17 120.81
  Q 523.96 129.37 529.14 138.30
  A 0.27 0.27 0.0 0 1 528.85 138.70
  Q 514.42 135.54 500.70 136.07
  Q 494.25 136.31 486.31 136.92
  C 484.59 137.05 483.21 137.66 481.58 137.89
  Q 481.00 137.97 480.63 137.53
  Q 474.43 130.29 472.43 128.33
  Q 440.82 97.37 397.10 86.06
  L 406.12 48.40
  Z"
/>
<path fill="#e4cf53" d="
  M 298.41 52.25
  Q 301.06 52.06 302.55 53.36
  Q 303.01 53.75 303.03 54.36
  C 303.06 55.52 303.59 56.13 303.68 57.29
  Q 303.95 60.79 304.78 64.19
  Q 305.24 66.04 305.50 67.85
  C 305.75 69.52 306.23 71.00 306.08 72.74
  Q 305.78 76.08 306.97 79.24
  A 1.13 1.07 8.3 0 0 307.38 79.76
  Q 309.01 80.91 308.21 83.10
  Q 308.04 83.55 308.21 84.01
  Q 309.30 86.99 308.55 89.92
  Q 259.79 107.20 229.48 148.98
  Q 227.16 152.17 224.79 155.45
  Q 222.39 158.78 220.73 162.13
  C 214.28 175.10 208.23 188.02 204.95 201.99
  Q 200.64 220.36 200.14 235.33
  C 199.86 243.71 199.67 252.53 200.39 260.56
  Q 204.62 307.75 230.69 343.32
  Q 252.60 373.23 287.69 391.32
  Q 287.99 392.60 289.31 393.23
  Q 289.74 393.43 290.21 393.36
  Q 290.63 393.29 290.79 393.72
  A 0.68 0.64 4.2 0 0 291.13 394.09
  L 298.52 397.62
  A 1.59 1.54 1.9 0 1 299.30 398.43
  Q 299.79 399.59 301.07 399.67
  C 301.93 399.72 302.43 399.99 303.11 400.46
  Q 303.56 400.76 304.10 400.82
  L 307.77 401.19
  A 2.31 2.31 0.0 0 1 309.85 403.49
  Q 309.86 406.78 308.95 409.83
  Q 308.29 412.06 308.08 413.22
  C 307.56 416.11 307.11 418.61 306.29 421.78
  Q 304.93 427.04 304.40 432.46
  Q 304.21 434.46 301.53 439.49
  Q 289.95 436.20 278.68 430.82
  Q 250.48 417.33 227.73 397.60
  Q 220.63 391.45 214.06 384.15
  Q 204.06 373.05 197.96 364.67
  Q 190.67 354.65 183.17 341.28
  Q 181.61 338.50 177.83 330.43
  C 170.33 314.45 166.70 297.76 163.24 281.02
  C 161.17 271.00 159.96 260.23 159.98 250.05
  C 160.00 240.84 159.72 231.94 160.94 222.73
  Q 163.58 202.81 167.83 187.38
  Q 173.52 166.73 183.96 147.98
  Q 198.06 122.65 214.27 106.34
  Q 221.83 98.75 232.79 89.14
  Q 241.33 81.65 248.55 76.89
  Q 271.90 61.51 298.41 52.25
  Z"
/>
<path fill="#73c96e" d="
  M 513.64 265.93
  A 41.76 41.76 0.0 0 1 471.88 307.69
  L 465.86 307.69
  A 41.76 41.76 0.0 0 1 424.10 265.93
  L 424.10 224.37
  A 41.76 41.76 0.0 0 1 465.86 182.61
  L 471.88 182.61
  A 41.76 41.76 0.0 0 1 513.64 224.37
  L 513.64 265.93
  Z
  M 489.4185 225.5917
  A 19.45 19.45 0.0 0 0 470.0365 206.0739
  L 467.9366 206.0666
  A 19.45 19.45 0.0 0 0 448.4188 225.4486
  L 448.2815 264.7883
  A 19.45 19.45 0.0 0 0 467.6635 284.3061
  L 469.7634 284.3134
  A 19.45 19.45 0.0 0 0 489.2812 264.9314
  L 489.4185 225.5917
  Z"
/>
<path fill="#73c96e" d="
  M 585.47 184.28
  C 608.67 185.95 624.79 201.91 624.95 225.29
  Q 625.10 246.96 624.92 266.58
  Q 624.86 273.18 621.92 280.99
  C 615.04 299.26 596.45 306.54 577.99 306.59
  Q 557.36 306.65 536.34 306.59
  Q 536.00 306.59 536.00 306.25
  L 536.00 184.01
  Q 536.00 183.63 536.38 183.63
  C 552.63 183.65 569.19 183.11 585.47 184.28
  Z
  M 559.67 206.72
  L 559.53 283.62
  A 0.39 0.39 0.0 0 0 559.92 284.01
  L 579.40 284.05
  A 21.63 20.51 0.1 0 0 601.07 263.58
  L 601.13 226.92
  A 21.63 20.51 0.1 0 0 579.54 206.37
  L 560.06 206.33
  A 0.39 0.39 0.0 0 0 559.67 206.72
  Z"
/>
<path fill="#73c96e" d="
  M 671.16 234.21
  L 720.24 234.20
  A 0.38 0.38 0.0 0 1 720.62 234.58
  L 720.64 256.41
  A 0.38 0.38 0.0 0 1 720.26 256.79
  L 671.17 256.79
  A 0.38 0.38 0.0 0 0 670.79 257.17
  L 670.79 283.62
  A 0.38 0.38 0.0 0 0 671.17 284.00
  L 729.41 284.00
  A 0.38 0.38 0.0 0 1 729.79 284.38
  L 729.79 306.24
  A 0.38 0.38 0.0 0 1 729.41 306.62
  L 647.73 306.62
  A 0.38 0.38 0.0 0 1 647.35 306.24
  L 647.35 184.00
  A 0.38 0.38 0.0 0 1 647.73 183.62
  L 729.42 183.63
  A 0.38 0.38 0.0 0 1 729.80 184.01
  L 729.79 205.97
  A 0.38 0.38 0.0 0 1 729.41 206.35
  L 671.18 206.35
  A 0.38 0.38 0.0 0 0 670.80 206.73
  L 670.78 233.83
  A 0.38 0.38 0.0 0 0 671.16 234.21
  Z"
/>
<path fill="#73c96e" d="
  M 814.58 256.05
  A 0.15 0.14 -25.0 0 0 814.50 256.26
  L 843.43 306.13
  A 0.34 0.34 0.0 0 1 843.14 306.64
  L 815.83 306.61
  Q 815.16 306.61 814.84 306.03
  L 787.91 257.95
  Q 787.59 257.37 786.92 257.37
  L 774.70 257.36
  Q 774.00 257.36 774.00 258.05
  L 774.00 306.31
  Q 774.00 306.63 773.68 306.63
  L 750.74 306.62
  A 0.38 0.37 90.0 0 1 750.37 306.24
  L 750.36 184.07
  Q 750.36 183.59 750.84 183.59
  Q 775.50 183.76 796.74 183.56
  Q 809.31 183.44 814.28 184.90
  C 834.29 190.79 841.08 210.69 837.42 229.95
  Q 833.64 249.85 814.58 256.05
  Z
  M 774.00 206.69
  L 774.00 234.29
  A 0.37 0.37 0.0 0 0 774.37 234.66
  L 802.63 234.66
  A 13.06 11.55 90.0 0 0 814.18 221.60
  L 814.18 219.38
  A 13.06 11.55 -90.0 0 0 802.63 206.32
  L 774.37 206.32
  A 0.37 0.37 0.0 0 0 774.00 206.69
  Z"
/>
<rect fill="#131217" x="-20.50" y="-39.12" transform="translate(468.85,245.19) rotate(0.2)" width="41.00" height="78.24" rx="19.45"/>
<path fill="#131217" d="
  M 559.67 206.72
  A 0.39 0.39 0.0 0 1 560.06 206.33
  L 579.54 206.37
  A 21.63 20.51 0.1 0 1 601.13 226.92
  L 601.07 263.58
  A 21.63 20.51 0.1 0 1 579.40 284.05
  L 559.92 284.01
  A 0.39 0.39 0.0 0 1 559.53 283.62
  L 559.67 206.72
  Z"
/>
<path fill="#131217" d="
  M 774.00 206.69
  A 0.37 0.37 0.0 0 1 774.37 206.32
  L 802.63 206.32
  A 13.06 11.55 90.0 0 1 814.18 219.38
  L 814.18 221.60
  A 13.06 11.55 90.0 0 1 802.63 234.66
  L 774.37 234.66
  A 0.37 0.37 0.0 0 1 774.00 234.29
  L 774.00 206.69
  Z"
/>
<path fill="#73c96e" d="
  M 406.26 442.90
  Q 404.84 440.35 404.21 437.74
  Q 400.89 424.16 397.62 410.02
  Q 397.15 407.97 396.01 406.31
  A 1.09 1.06 -13.3 0 0 395.26 405.86
  L 392.75 405.51
  Q 443.02 393.49 479.55 354.55
  Q 481.09 352.92 483.92 353.52
  Q 486.63 354.10 487.74 354.14
  C 490.64 354.24 493.46 354.93 496.23 355.00
  Q 508.38 355.30 520.99 353.98
  Q 524.90 353.57 528.45 352.54
  Q 530.95 351.81 529.55 354.00
  Q 502.01 396.91 458.12 422.70
  C 452.00 426.29 444.71 429.33 438.00 432.52
  Q 426.07 438.20 406.26 442.90
  Z"
/>
<path fill="#b9d056" d="
  M 287.69 391.32
  Q 308.88 402.20 327.59 406.14
  Q 358.90 412.72 392.75 405.51
  L 395.26 405.86
  A 1.09 1.06 -13.3 0 1 396.01 406.31
  Q 397.15 407.97 397.62 410.02
  Q 400.89 424.16 404.21 437.74
  Q 404.84 440.35 406.26 442.90
  Q 401.65 443.84 397.08 444.81
  Q 392.35 445.83 387.92 446.28
  C 381.60 446.94 375.24 447.70 369.03 447.89
  Q 353.76 448.36 336.00 446.51
  Q 317.34 444.56 301.53 439.49
  Q 304.21 434.46 304.40 432.46
  Q 304.93 427.04 306.29 421.78
  C 307.11 418.61 307.56 416.11 308.08 413.22
  Q 308.29 412.06 308.95 409.83
  Q 309.86 406.78 309.85 403.49
  A 2.31 2.31 0.0 0 0 307.77 401.19
  L 304.10 400.82
  Q 303.56 400.76 303.11 400.46
  C 302.43 399.99 301.93 399.72 301.07 399.67
  Q 299.79 399.59 299.30 398.43
  A 1.59 1.54 1.9 0 0 298.52 397.62
  L 291.13 394.09
  A 0.68 0.64 4.2 0 1 290.79 393.72
  Q 290.63 393.29 290.21 393.36
  Q 289.74 393.43 289.31 393.23
  Q 287.99 392.60 287.69 391.32
  Z"
/>
</svg>
